<?xml version="1.0" encoding="UTF-8" standalone="no"?>
<svg width="1312px" height="309px" viewBox="0 0 1312 309" version="1.1" xmlns="http://www.w3.org/2000/svg" xmlns:xlink="http://www.w3.org/1999/xlink" xmlns:sketch="http://www.bohemiancoding.com/sketch/ns">
    <!-- Generator: Sketch 3.2.2 (9983) - http://www.bohemiancoding.com/sketch -->
    <title>logo</title>
    <desc>Created with Sketch.</desc>
    <defs></defs>
    <g id="Page-1" stroke="none" stroke-width="1" fill="none" fill-rule="evenodd" sketch:type="MSPage">
        <g id="logo" sketch:type="MSArtboardGroup">
            <path d="M374.28,195.248 C374.28,193.135989 374.903994,191.504006 376.152,190.352 C377.400006,189.199994 378.839992,188.624 380.472,188.624 C382.104008,188.624 383.519994,189.199994 384.72,190.352 C385.920006,191.504006 386.52,193.135989 386.52,195.248 C386.52,197.26401 385.920006,198.847994 384.72,200 C383.519994,201.152006 382.104008,201.728 380.472,201.728 C378.839992,201.728 377.400006,201.152006 376.152,200 C374.903994,198.847994 374.28,197.26401 374.28,195.248 L374.28,195.248 Z M441.384,97.76 L446.856,97.76 L402.936,223.04 L397.464,223.04 L441.384,97.76 Z M460.824,130.88 L466.296,130.88 L466.872,141.536 L467.304,141.536 C470.376015,137.983982 473.807981,135.032012 477.6,132.68 C481.392019,130.327988 485.207981,129.152 489.048,129.152 C494.616028,129.152 498.887985,130.423987 501.864,132.968 C504.840015,135.512013 506.951994,138.943978 508.2,143.264 C512.23202,138.943978 516.143981,135.512013 519.936,132.968 C523.728019,130.423987 527.63998,129.152 531.672,129.152 C545.496069,129.152 552.408,137.983912 552.408,155.648 L552.408,200 L545.928,200 L545.928,156.512 C545.928,149.119963 544.680012,143.672018 542.184,140.168 C539.687988,136.663982 535.800026,134.912 530.52,134.912 C524.279969,134.912 517.368038,139.231957 509.784,147.872 L509.784,200 L503.448,200 L503.448,156.512 C503.448,149.119963 502.200012,143.672018 499.704,140.168 C497.207988,136.663982 493.272027,134.912 487.896,134.912 C481.655969,134.912 474.744038,139.231957 467.16,147.872 L467.16,200 L460.824,200 L460.824,130.88 Z M571.992,165.584 C571.992,159.919972 572.831992,154.832023 574.512,150.32 C576.192008,145.807977 578.447986,141.992016 581.28,138.872 C584.112014,135.751984 587.327982,133.352008 590.928,131.672 C594.528018,129.991992 598.247981,129.152 602.088,129.152 C610.344041,129.152 616.823976,131.935972 621.528,137.504 C626.232024,143.072028 628.584,150.943949 628.584,161.12 L628.584,163.712 C628.584,164.576004 628.488001,165.439996 628.296,166.304 L578.472,166.304 C578.568,170.624022 579.239994,174.631982 580.488,178.328 C581.736006,182.024018 583.487989,185.191987 585.744,187.832 C588.000011,190.472013 590.711984,192.535993 593.88,194.024 C597.048016,195.512007 600.59998,196.256 604.536,196.256 C608.280019,196.256 611.663985,195.704006 614.688,194.6 C617.712015,193.495994 620.519987,191.98401 623.112,190.064 L625.704,194.96 C622.919986,196.592008 619.872017,198.127993 616.56,199.568 C613.247983,201.008007 609.048025,201.728 603.96,201.728 C599.543978,201.728 595.392019,200.912008 591.504,199.28 C587.615981,197.647992 584.232014,195.272016 581.352,192.152 C578.471986,189.031984 576.192008,185.240022 574.512,180.776 C572.831992,176.311978 571.992,171.248028 571.992,165.584 L571.992,165.584 Z M622.536,161.408 C622.536,152.479955 620.712018,145.784022 617.064,141.32 C613.415982,136.855978 608.472031,134.624 602.232,134.624 C599.255985,134.624 596.424013,135.247994 593.736,136.496 C591.047987,137.744006 588.624011,139.519988 586.464,141.824 C584.303989,144.128012 582.528007,146.935983 581.136,150.248 C579.743993,153.560017 578.856002,157.279979 578.472,161.408 L622.536,161.408 Z M647.304,136.352 L636.504,136.352 L636.504,131.456 L647.448,130.88 L648.312,110.864 L653.784,110.864 L653.784,130.88 L673.8,130.88 L673.8,136.352 L653.784,136.352 L653.784,181.424 C653.784,183.632011 653.951998,185.623991 654.288,187.4 C654.624002,189.176009 655.223996,190.711994 656.088,192.008 C656.952004,193.304006 658.127993,194.311996 659.616,195.032 C661.104007,195.752004 663.047988,196.112 665.448,196.112 C666.792007,196.112 668.255992,195.896002 669.84,195.464 C671.424008,195.031998 672.839994,194.528003 674.088,193.952 L675.816,199.136 C673.79999,199.904004 671.78401,200.527998 669.768,201.008 C667.75199,201.488002 666.024007,201.728 664.584,201.728 C661.223983,201.728 658.440011,201.224005 656.232,200.216 C654.023989,199.207995 652.248007,197.792009 650.904,195.968 C649.559993,194.143991 648.624003,191.936013 648.096,189.344 C647.567997,186.751987 647.304,183.920015 647.304,180.848 L647.304,136.352 Z M690.648,130.88 L696.12,130.88 L696.696,143.696 L697.128,143.696 C699.432012,139.375978 702.239983,135.872013 705.552,133.184 C708.864017,130.495987 712.583979,129.152 716.712,129.152 C718.056007,129.152 719.255995,129.247999 720.312,129.44 C721.368005,129.632001 722.471994,130.015997 723.624,130.592 L722.184,136.352 C721.031994,135.871998 720.024004,135.560001 719.16,135.416 C718.295996,135.271999 717.192007,135.2 715.848,135.2 C712.775985,135.2 709.536017,136.519987 706.128,139.16 C702.719983,141.800013 699.672013,146.383967 696.984,152.912 L696.984,200 L690.648,200 L690.648,130.88 Z M739.608,114.176 C737.975992,114.176 736.608006,113.648005 735.504,112.592 C734.399994,111.535995 733.848,110.192008 733.848,108.56 C733.848,106.735991 734.399994,105.320005 735.504,104.312 C736.608006,103.303995 737.975992,102.8 739.608,102.8 C741.240008,102.8 742.607994,103.303995 743.712,104.312 C744.816006,105.320005 745.368,106.735991 745.368,108.56 C745.368,110.192008 744.816006,111.535995 743.712,112.592 C742.607994,113.648005 741.240008,114.176 739.608,114.176 L739.608,114.176 Z M736.296,130.88 L742.632,130.88 L742.632,200 L736.296,200 L736.296,130.88 Z M763.512,165.584 C763.512,159.823971 764.375991,154.664023 766.104,150.104 C767.832009,145.543977 770.135986,141.728015 773.016,138.656 C775.896014,135.583985 779.231981,133.232008 783.024,131.6 C786.816019,129.967992 790.823979,129.152 795.048,129.152 C799.848024,129.152 803.855984,130.015991 807.072,131.744 C810.288016,133.472009 813.047988,135.439989 815.352,137.648 L811.608,142.112 C809.399989,139.999989 806.952013,138.248007 804.264,136.856 C801.575987,135.463993 798.552017,134.768 795.192,134.768 C791.639982,134.768 788.352015,135.511993 785.328,137 C782.303985,138.488007 779.664011,140.599986 777.408,143.336 C775.151989,146.072014 773.376006,149.311981 772.08,153.056 C770.783994,156.800019 770.136,160.975977 770.136,165.584 C770.136,170.096023 770.735994,174.223981 771.936,177.968 C773.136006,181.712019 774.815989,184.927987 776.976,187.616 C779.136011,190.304013 781.775984,192.391993 784.896,193.88 C788.016016,195.368007 791.447981,196.112 795.192,196.112 C798.840018,196.112 802.223984,195.344008 805.344,193.808 C808.464016,192.271992 811.223988,190.400011 813.624,188.192 L816.936,192.512 C813.959985,195.200013 810.648018,197.407991 807,199.136 C803.351982,200.864009 799.320022,201.728 794.904,201.728 C790.391977,201.728 786.240019,200.912008 782.448,199.28 C778.655981,197.647992 775.344014,195.296015 772.512,192.224 C769.679986,189.151985 767.472008,185.384022 765.888,180.92 C764.303992,176.455978 763.512,171.344029 763.512,165.584 L763.512,165.584 Z M829.032,187.472 C832.008015,189.968012 835.175983,192.055992 838.536,193.736 C841.896017,195.416008 846.071975,196.256 851.064,196.256 C856.536027,196.256 860.639986,194.888014 863.376,192.152 C866.112014,189.415986 867.48,186.224018 867.48,182.576 C867.48,180.463989 866.976005,178.592008 865.968,176.96 C864.959995,175.327992 863.640008,173.936006 862.008,172.784 C860.375992,171.631994 858.57601,170.624004 856.608,169.76 C854.63999,168.895996 852.64801,168.080004 850.632,167.312 C848.039987,166.351995 845.424013,165.344005 842.784,164.288 C840.143987,163.231995 837.768011,161.960007 835.656,160.472 C833.543989,158.983993 831.840006,157.20801 830.544,155.144 C829.247994,153.07999 828.6,150.560015 828.6,147.584 C828.6,145.087988 829.079995,142.712011 830.04,140.456 C831.000005,138.199989 832.43999,136.232008 834.36,134.552 C836.28001,132.871992 838.607986,131.552005 841.344,130.592 C844.080014,129.631995 847.271982,129.152 850.92,129.152 C854.568018,129.152 858.143982,129.823993 861.648,131.168 C865.152018,132.512007 868.151988,134.239989 870.648,136.352 L867.192,140.816 C864.887988,139.087991 862.440013,137.624006 859.848,136.424 C857.255987,135.223994 854.184018,134.624 850.632,134.624 C847.943987,134.624 845.64001,134.983996 843.72,135.704 C841.79999,136.424004 840.192006,137.359994 838.896,138.512 C837.599994,139.664006 836.640003,141.007992 836.016,142.544 C835.391997,144.080008 835.08,145.615992 835.08,147.152 C835.08,149.16801 835.535995,150.871993 836.448,152.264 C837.360005,153.656007 838.583992,154.879995 840.12,155.936 C841.656008,156.992005 843.40799,157.927996 845.376,158.744 C847.34401,159.560004 849.33599,160.351996 851.352,161.12 C854.040013,162.176005 856.727987,163.231995 859.416,164.288 C862.104013,165.344005 864.527989,166.639992 866.688,168.176 C868.848011,169.712008 870.599993,171.607989 871.944,173.864 C873.288007,176.120011 873.96,178.927983 873.96,182.288 C873.96,184.880013 873.456005,187.351988 872.448,189.704 C871.439995,192.056012 869.92801,194.119991 867.912,195.896 C865.89599,197.672009 863.448014,199.087995 860.568,200.144 C857.687986,201.200005 854.376019,201.728 850.632,201.728 C845.447974,201.728 840.696022,200.792009 836.376,198.92 C832.055978,197.047991 828.360015,194.816013 825.288,192.224 L829.032,187.472 Z M888.648,195.248 C888.648,193.135989 889.271994,191.504006 890.52,190.352 C891.768006,189.199994 893.207992,188.624 894.84,188.624 C896.472008,188.624 897.887994,189.199994 899.088,190.352 C900.288006,191.504006 900.888,193.135989 900.888,195.248 C900.888,197.26401 900.288006,198.847994 899.088,200 C897.887994,201.152006 896.472008,201.728 894.84,201.728 C893.207992,201.728 891.768006,201.152006 890.52,200 C889.271994,198.847994 888.648,197.26401 888.648,195.248 L888.648,195.248 Z M918.888,187.472 C921.864015,189.968012 925.031983,192.055992 928.392,193.736 C931.752017,195.416008 935.927975,196.256 940.92,196.256 C946.392027,196.256 950.495986,194.888014 953.232,192.152 C955.968014,189.415986 957.336,186.224018 957.336,182.576 C957.336,180.463989 956.832005,178.592008 955.824,176.96 C954.815995,175.327992 953.496008,173.936006 951.864,172.784 C950.231992,171.631994 948.43201,170.624004 946.464,169.76 C944.49599,168.895996 942.50401,168.080004 940.488,167.312 C937.895987,166.351995 935.280013,165.344005 932.64,164.288 C929.999987,163.231995 927.624011,161.960007 925.512,160.472 C923.399989,158.983993 921.696006,157.20801 920.4,155.144 C919.103994,153.07999 918.456,150.560015 918.456,147.584 C918.456,145.087988 918.935995,142.712011 919.896,140.456 C920.856005,138.199989 922.29599,136.232008 924.216,134.552 C926.13601,132.871992 928.463986,131.552005 931.2,130.592 C933.936014,129.631995 937.127982,129.152 940.776,129.152 C944.424018,129.152 947.999982,129.823993 951.504,131.168 C955.008018,132.512007 958.007988,134.239989 960.504,136.352 L957.048,140.816 C954.743988,139.087991 952.296013,137.624006 949.704,136.424 C947.111987,135.223994 944.040018,134.624 940.488,134.624 C937.799987,134.624 935.49601,134.983996 933.576,135.704 C931.65599,136.424004 930.048006,137.359994 928.752,138.512 C927.455994,139.664006 926.496003,141.007992 925.872,142.544 C925.247997,144.080008 924.936,145.615992 924.936,147.152 C924.936,149.16801 925.391995,150.871993 926.304,152.264 C927.216005,153.656007 928.439992,154.879995 929.976,155.936 C931.512008,156.992005 933.26399,157.927996 935.232,158.744 C937.20001,159.560004 939.19199,160.351996 941.208,161.12 C943.896013,162.176005 946.583987,163.231995 949.272,164.288 C951.960013,165.344005 954.383989,166.639992 956.544,168.176 C958.704011,169.712008 960.455993,171.607989 961.8,173.864 C963.144007,176.120011 963.816,178.927983 963.816,182.288 C963.816,184.880013 963.312005,187.351988 962.304,189.704 C961.295995,192.056012 959.78401,194.119991 957.768,195.896 C955.75199,197.672009 953.304014,199.087995 950.424,200.144 C947.543986,201.200005 944.232019,201.728 940.488,201.728 C935.303974,201.728 930.552022,200.792009 926.232,198.92 C921.911978,197.047991 918.216015,194.816013 915.144,192.224 L918.888,187.472 Z M982.104,96.464 L988.44,96.464 L988.44,126.416 L988.44,141.68 C992.088018,138.031982 995.783981,135.032012 999.528,132.68 C1003.27202,130.327988 1007.54398,129.152 1012.344,129.152 C1019.54404,129.152 1024.82398,131.311978 1028.184,135.632 C1031.54402,139.952022 1033.224,146.623955 1033.224,155.648 L1033.224,200 L1026.888,200 L1026.888,156.512 C1026.888,149.119963 1025.66401,143.672018 1023.216,140.168 C1020.76799,136.663982 1016.71203,134.912 1011.048,134.912 C1006.91998,134.912 1003.17602,135.991989 999.816,138.152 C996.455983,140.312011 992.664021,143.551978 988.44,147.872 L988.44,200 L982.104,200 L982.104,96.464 Z" id="text" fill="#333333" sketch:type="MSShapeGroup"></path>
            <path d="M321.144,120.512 C319.799993,119.167993 318.480006,117.968005 317.184,116.912 C315.887994,115.855995 314.520007,114.944004 313.08,114.176 C311.639993,113.407996 310.056009,112.832002 308.328,112.448 C306.599991,112.063998 304.632011,111.872 302.424,111.872 C297.431975,111.872 293.400015,113.431984 290.328,116.552 C287.255985,119.672016 285.72,123.631976 285.72,128.432 C285.72,132.656021 286.75199,136.039987 288.816,138.584 C290.88001,141.128013 293.447985,143.335991 296.52,145.208 C299.592015,147.080009 302.927982,148.807992 306.528,150.392 C310.128018,151.976008 313.463985,153.895989 316.536,156.152 C319.608015,158.408011 322.17599,161.239983 324.24,164.648 C326.30401,168.056017 327.336,172.495973 327.336,177.968 C327.336,184.880035 325.248021,190.399979 321.072,194.528 C316.895979,198.656021 311.592032,201.007997 305.16,201.584 L305.16,215.84 L299.544,215.84 L299.544,201.584 C294.551975,201.199998 289.992021,199.928011 285.864,197.768 C281.735979,195.607989 278.280014,193.184013 275.496,190.496 L278.952,186.032 C281.736014,188.528012 285.047981,190.831989 288.888,192.944 C292.728019,195.056011 297.143975,196.112 302.136,196.112 C308.18403,196.112 312.815984,194.480016 316.032,191.216 C319.248016,187.951984 320.856,183.680026 320.856,178.4 C320.856,173.695976 319.82401,169.880015 317.76,166.952 C315.69599,164.023985 313.128015,161.52801 310.056,159.464 C306.983985,157.39999 303.648018,155.552008 300.048,153.92 C296.447982,152.287992 293.112015,150.416011 290.04,148.304 C286.967985,146.191989 284.40001,143.624015 282.336,140.6 C280.27199,137.575985 279.24,133.616024 279.24,128.72 C279.24,125.743985 279.743995,122.960013 280.752,120.368 C281.760005,117.775987 283.151991,115.49601 284.928,113.528 C286.704009,111.55999 288.839988,109.952006 291.336,108.704 C293.832012,107.455994 296.567985,106.688001 299.544,106.4 L299.544,92.144 L305.16,92.144 L305.16,106.4 C309.864024,106.688001 313.703985,107.79199 316.68,109.712 C319.656015,111.63201 322.391988,113.887987 324.888,116.48 L321.144,120.512 Z" id="dollar" fill="#D0011B" sketch:type="MSShapeGroup"></path>
        </g>
    </g>
</svg>